<?xml version="1.0" encoding="utf-8"?>
<!-- Generator: Adobe Illustrator 26.0.1, SVG Export Plug-In . SVG Version: 6.00 Build 0)  -->
<svg version="1.1" xmlns="http://www.w3.org/2000/svg" xmlns:xlink="http://www.w3.org/1999/xlink" x="0px" y="0px"
	 viewBox="0 0 2500 2500" style="enable-background:new 0 0 2500 2500;" xml:space="preserve">
<style type="text/css">
	.st0{fill:#453FAA;}
	.st1{fill:#301284;}
	.st2{fill:#80B2FF;}
	.st3{fill:#C0DAFF;}
	.st4{fill:#9471F4;}
	.st5{fill:#422496;}
	.st6{fill:#D1F5FF;}
	.st7{fill:#FF9F34;}
	.st8{fill:none;stroke:#B3D1FF;stroke-width:4;stroke-linejoin:round;stroke-miterlimit:10;}
	.st9{fill:none;stroke:#1D2063;stroke-width:4;stroke-miterlimit:10;}
	.st10{fill:#8C67EF;}
	.st11{fill:#FFFFFF;}
	.st12{fill:#6424EB;}
	.st13{fill:#4D4D4D;}
	.st14{fill:#D9FFFF;}
	.st15{fill:#7852E2;}
	.st16{fill:#9474FF;}
	.st17{fill:#F7A58E;}
	.st18{fill:#00050D;}
	.st19{fill:#E6856A;}
</style>
<g id="BG">
	<rect class="st0" width="2500" height="2500"/>
</g>
<g id="shadow">
	<path class="st1" d="M2059.02,2063.56H492.01c-6,0-10.87-3.23-10.87-7.22l0,0c0-3.99,4.87-7.22,10.87-7.22h1567.01
		c6,0,10.87,3.23,10.87,7.22l0,0C2069.89,2060.33,2065.02,2063.56,2059.02,2063.56z"/>
</g>
<g id="elements">
	<g id="cloud_1_">
		<g>
			<path class="st2" d="M497.99,888.16c0.08-1.03,0.13-2.06,0.13-3.11c0-21.95-17.79-39.74-39.74-39.74s-39.74,17.79-39.74,39.74
				c0,1.05,0.05,2.09,0.13,3.11H497.99z"/>
			<path class="st2" d="M628.55,888.16c0.08-1.03,0.13-2.06,0.13-3.11c0-21.95-17.79-39.74-39.74-39.74
				c-21.95,0-39.74,17.79-39.74,39.74c0,1.05,0.05,2.09,0.13,3.11H628.55z"/>
			<path class="st2" d="M662.36,888.16c0.11-1.02,0.18-2.06,0.18-3.11c0-15.52-12.58-28.1-28.1-28.1s-28.1,12.58-28.1,28.1
				c0,1.05,0.06,2.09,0.18,3.11H662.36z"/>
			<path class="st2" d="M582.83,888.16c0.31-2.43,0.47-4.9,0.47-7.41c0-32.15-26.07-58.22-58.22-58.22
				c-32.15,0-58.22,26.07-58.22,58.22c0,2.51,0.16,4.98,0.47,7.41H582.83z"/>
		</g>
		<g>
			<path class="st2" d="M1477.19,434.08c0.08-1.03,0.13-2.06,0.13-3.11c0-21.95-17.79-39.74-39.74-39.74
				c-21.95,0-39.74,17.79-39.74,39.74c0,1.05,0.05,2.09,0.13,3.11H1477.19z"/>
			<path class="st2" d="M1607.75,434.08c0.08-1.03,0.13-2.06,0.13-3.11c0-21.95-17.79-39.74-39.74-39.74
				c-21.95,0-39.74,17.79-39.74,39.74c0,1.05,0.05,2.09,0.13,3.11H1607.75z"/>
			<path class="st2" d="M1562.04,434.08c0.31-2.43,0.47-4.9,0.47-7.41c0-32.15-26.07-58.22-58.22-58.22
				c-32.15,0-58.22,26.07-58.22,58.22c0,2.51,0.16,4.98,0.47,7.41H1562.04z"/>
		</g>
	</g>
	<g id="card_1_">
		<path class="st3" d="M1268.41,890.4h-14.32c-1.06,0-1.92-0.86-1.92-1.92c0-1.06,0.86-1.92,1.92-1.92h14.32
			c1.06,0,1.92,0.86,1.92,1.92C1270.33,889.54,1269.47,890.4,1268.41,890.4z M1239.78,890.4h-14.32c-1.06,0-1.92-0.86-1.92-1.92
			c0-1.06,0.86-1.92,1.92-1.92h14.32c1.06,0,1.92,0.86,1.92,1.92C1241.7,889.54,1240.84,890.4,1239.78,890.4z M1211.14,890.4h-14.32
			c-1.06,0-1.92-0.86-1.92-1.92c0-1.06,0.86-1.92,1.92-1.92h14.32c1.06,0,1.92,0.86,1.92,1.92
			C1213.06,889.54,1212.2,890.4,1211.14,890.4z M1182.51,890.4h-14.32c-1.06,0-1.92-0.86-1.92-1.92c0-1.06,0.86-1.92,1.92-1.92
			h14.32c1.06,0,1.92,0.86,1.92,1.92C1184.43,889.54,1183.57,890.4,1182.51,890.4z M1153.87,890.4h-14.32
			c-1.06,0-1.92-0.86-1.92-1.92c0-1.06,0.86-1.92,1.92-1.92h14.32c1.06,0,1.92,0.86,1.92,1.92
			C1155.79,889.54,1154.93,890.4,1153.87,890.4z M1125.24,890.4h-14.32c-1.06,0-1.92-0.86-1.92-1.92c0-1.06,0.86-1.92,1.92-1.92
			h14.32c1.06,0,1.92,0.86,1.92,1.92C1127.15,889.54,1126.3,890.4,1125.24,890.4z M1096.6,890.4h-14.32c-1.06,0-1.92-0.86-1.92-1.92
			c0-1.06,0.86-1.92,1.92-1.92h14.32c1.06,0,1.92,0.86,1.92,1.92C1098.52,889.54,1097.66,890.4,1096.6,890.4z M1067.97,890.4h-14.32
			c-1.06,0-1.92-0.86-1.92-1.92c0-1.06,0.86-1.92,1.92-1.92h14.32c1.06,0,1.92,0.86,1.92,1.92
			C1069.88,889.54,1069.03,890.4,1067.97,890.4z M1039.33,890.4h-14.32c-1.06,0-1.92-0.86-1.92-1.92c0-1.06,0.86-1.92,1.92-1.92
			h14.32c1.06,0,1.92,0.86,1.92,1.92C1041.25,889.54,1040.39,890.4,1039.33,890.4z M1010.7,890.4h-14.32
			c-1.06,0-1.92-0.86-1.92-1.92c0-1.06,0.86-1.92,1.92-1.92h14.32c1.06,0,1.92,0.86,1.92,1.92
			C1012.61,889.54,1011.76,890.4,1010.7,890.4z M982.06,890.4h-14.32c-1.06,0-1.92-0.86-1.92-1.92c0-1.06,0.86-1.92,1.92-1.92h14.32
			c1.06,0,1.92,0.86,1.92,1.92C983.98,889.54,983.12,890.4,982.06,890.4z M953.43,890.4h-14.32c-1.06,0-1.92-0.86-1.92-1.92
			c0-1.06,0.86-1.92,1.92-1.92h14.32c1.06,0,1.92,0.86,1.92,1.92C955.34,889.54,954.48,890.4,953.43,890.4z M924.79,890.4h-14.32
			c-1.06,0-1.92-0.86-1.92-1.92c0-1.06,0.86-1.92,1.92-1.92h14.32c1.06,0,1.92,0.86,1.92,1.92
			C926.71,889.54,925.85,890.4,924.79,890.4z M896.15,890.4h-14.32c-1.06,0-1.92-0.86-1.92-1.92c0-1.06,0.86-1.92,1.92-1.92h14.32
			c1.06,0,1.92,0.86,1.92,1.92C898.07,889.54,897.21,890.4,896.15,890.4z M867.52,890.4H853.2c-1.06,0-1.92-0.86-1.92-1.92
			c0-1.06,0.86-1.92,1.92-1.92h14.32c1.06,0,1.92,0.86,1.92,1.92C869.44,889.54,868.58,890.4,867.52,890.4z M838.88,890.4h-14.32
			c-1.06,0-1.92-0.86-1.92-1.92c0-1.06,0.86-1.92,1.92-1.92h14.32c1.06,0,1.92,0.86,1.92,1.92
			C840.8,889.54,839.94,890.4,838.88,890.4z M810.25,890.4h-14.32c-1.06,0-1.92-0.86-1.92-1.92c0-1.06,0.86-1.92,1.92-1.92h14.32
			c1.06,0,1.92,0.86,1.92,1.92C812.17,889.54,811.31,890.4,810.25,890.4z M781.61,890.4H767.3c-1.06,0-1.92-0.86-1.92-1.92
			c0-1.06,0.86-1.92,1.92-1.92h14.32c1.06,0,1.92,0.86,1.92,1.92C783.53,889.54,782.67,890.4,781.61,890.4z M752.98,890.4h-2.33
			c-4.53,0-8.89-1.6-12.26-4.49c-0.8-0.69-0.9-1.9-0.21-2.7c0.69-0.8,1.9-0.9,2.7-0.21c2.68,2.3,6.15,3.57,9.77,3.57h2.33
			c1.06,0,1.92,0.86,1.92,1.92C754.9,889.54,754.04,890.4,752.98,890.4z M1281.99,887.01c-0.58,0-1.15-0.26-1.53-0.76
			c-0.64-0.84-0.47-2.05,0.37-2.69c3.48-2.63,5.49-6.57,5.5-10.78c0-1.06,0.86-1.91,1.92-1.91c0,0,0,0,0,0
			c1.06,0,1.92,0.86,1.91,1.92c-0.01,5.43-2.57,10.47-7.02,13.84C1282.8,886.88,1282.4,887.01,1281.99,887.01z M734.16,873.68
			c-1.06,0-1.92-0.86-1.92-1.92v-14.32c0-1.06,0.86-1.92,1.92-1.92c1.06,0,1.92,0.86,1.92,1.92v14.32
			C736.08,872.82,735.22,873.68,734.16,873.68z M1288.25,860.38c-1.06,0-1.92-0.86-1.92-1.92v-14.32c0-1.06,0.86-1.92,1.92-1.92
			s1.92,0.86,1.92,1.92v14.32C1290.17,859.52,1289.31,860.38,1288.25,860.38z M734.16,845.05c-1.06,0-1.92-0.86-1.92-1.92v-14.32
			c0-1.06,0.86-1.92,1.92-1.92c1.06,0,1.92,0.86,1.92,1.92v14.32C736.08,844.19,735.22,845.05,734.16,845.05z M1288.25,831.74
			c-1.06,0-1.92-0.86-1.92-1.92v-14.32c0-1.06,0.86-1.92,1.92-1.92s1.92,0.86,1.92,1.92v14.32
			C1290.17,830.89,1289.31,831.74,1288.25,831.74z M734.16,816.41c-1.06,0-1.92-0.86-1.92-1.92v-14.32c0-1.06,0.86-1.92,1.92-1.92
			c1.06,0,1.92,0.86,1.92,1.92v14.32C736.08,815.55,735.22,816.41,734.16,816.41z M1288.25,803.11c-1.06,0-1.92-0.86-1.92-1.92
			v-14.32c0-1.06,0.86-1.92,1.92-1.92s1.92,0.86,1.92,1.92v14.32C1290.17,802.25,1289.31,803.11,1288.25,803.11z M734.16,787.78
			c-1.06,0-1.92-0.86-1.92-1.92v-14.32c0-1.06,0.86-1.92,1.92-1.92c1.06,0,1.92,0.86,1.92,1.92v14.32
			C736.08,786.92,735.22,787.78,734.16,787.78z M1288.25,774.47c-1.06,0-1.92-0.86-1.92-1.92v-14.32c0-1.06,0.86-1.92,1.92-1.92
			s1.92,0.86,1.92,1.92v14.32C1290.17,773.62,1289.31,774.47,1288.25,774.47z M734.16,759.14c-1.06,0-1.92-0.86-1.92-1.92V742.9
			c0-1.06,0.86-1.92,1.92-1.92c1.06,0,1.92,0.86,1.92,1.92v14.32C736.08,758.28,735.22,759.14,734.16,759.14z M1288.25,745.84
			c-1.06,0-1.92-0.86-1.92-1.92V729.6c0-1.06,0.86-1.92,1.92-1.92s1.92,0.86,1.92,1.92v14.32
			C1290.17,744.98,1289.31,745.84,1288.25,745.84z M734.16,730.5c-1.06,0-1.92-0.86-1.92-1.92v-14.32c0-1.06,0.86-1.92,1.92-1.92
			c1.06,0,1.92,0.86,1.92,1.92v14.32C736.08,729.65,735.22,730.5,734.16,730.5z M1288.25,717.2c-1.06,0-1.92-0.86-1.92-1.92v-14.32
			c0-1.06,0.86-1.92,1.92-1.92s1.92,0.86,1.92,1.92v14.32C1290.17,716.34,1289.31,717.2,1288.25,717.2z M734.16,701.87
			c-1.06,0-1.92-0.86-1.92-1.92v-14.32c0-1.06,0.86-1.92,1.92-1.92c1.06,0,1.92,0.86,1.92,1.92v14.32
			C736.08,701.01,735.22,701.87,734.16,701.87z M1288.25,688.57c-1.06,0-1.92-0.86-1.92-1.92v-14.32c0-1.06,0.86-1.92,1.92-1.92
			s1.92,0.86,1.92,1.92v14.32C1290.17,687.71,1289.31,688.57,1288.25,688.57z M734.16,673.23c-1.06,0-1.92-0.86-1.92-1.92V657
			c0-1.06,0.86-1.92,1.92-1.92c1.06,0,1.92,0.86,1.92,1.92v14.32C736.08,672.38,735.22,673.23,734.16,673.23z M1288.25,659.93
			c-1.06,0-1.92-0.86-1.92-1.92V643.7c0-1.06,0.86-1.92,1.92-1.92s1.92,0.86,1.92,1.92v14.32
			C1290.17,659.07,1289.31,659.93,1288.25,659.93z M734.16,644.6c-1.06,0-1.92-0.86-1.92-1.92v-14.32c0-1.06,0.86-1.92,1.92-1.92
			c1.06,0,1.92,0.86,1.92,1.92v14.32C736.08,643.74,735.22,644.6,734.16,644.6z M1288.25,631.3c-1.06,0-1.92-0.86-1.92-1.92v-14.32
			c0-1.06,0.86-1.92,1.92-1.92s1.92,0.86,1.92,1.92v14.32C1290.17,630.44,1289.31,631.3,1288.25,631.3z M734.16,615.96
			c-1.06,0-1.92-0.86-1.92-1.92v-14.32c0-1.06,0.86-1.95,1.92-1.95c1.06,0,1.92,0.83,1.92,1.88v14.38
			C736.08,615.11,735.22,615.96,734.16,615.96z M1288.25,602.66c-1.06,0-1.92-0.86-1.92-1.92v-1.02c0-3.89-1.74-7.62-4.78-10.23
			c-0.8-0.69-0.89-1.9-0.2-2.7c0.69-0.8,1.9-0.89,2.7-0.2c3.88,3.34,6.11,8.13,6.11,13.14v1.02
			C1290.17,601.8,1289.31,602.66,1288.25,602.66z M740.45,589.28c-0.58,0-1.16-0.26-1.53-0.76c-0.64-0.85-0.47-2.05,0.38-2.68
			c3.27-2.46,7.19-3.76,11.35-3.76h3.39c1.06,0,1.92,0.86,1.92,1.92c0,1.06-0.86,1.92-1.92,1.92h-3.39c-3.32,0-6.45,1.03-9.04,2.99
			C741.25,589.16,740.85,589.28,740.45,589.28z M1269.46,585.91h-14.32c-1.06,0-1.92-0.86-1.92-1.92c0-1.06,0.86-1.92,1.92-1.92
			h14.32c1.06,0,1.92,0.86,1.92,1.92C1271.38,585.05,1270.52,585.91,1269.46,585.91z M1240.83,585.91h-14.32
			c-1.06,0-1.92-0.86-1.92-1.92c0-1.06,0.86-1.92,1.92-1.92h14.32c1.06,0,1.92,0.86,1.92,1.92
			C1242.75,585.05,1241.89,585.91,1240.83,585.91z M1212.19,585.91h-14.32c-1.06,0-1.92-0.86-1.92-1.92c0-1.06,0.86-1.92,1.92-1.92
			h14.32c1.06,0,1.92,0.86,1.92,1.92C1214.11,585.05,1213.25,585.91,1212.19,585.91z M1183.56,585.91h-14.32
			c-1.06,0-1.92-0.86-1.92-1.92c0-1.06,0.86-1.92,1.92-1.92h14.32c1.06,0,1.92,0.86,1.92,1.92
			C1185.48,585.05,1184.62,585.91,1183.56,585.91z M1154.92,585.91h-14.32c-1.06,0-1.92-0.86-1.92-1.92c0-1.06,0.86-1.92,1.92-1.92
			h14.32c1.06,0,1.92,0.86,1.92,1.92C1156.84,585.05,1155.98,585.91,1154.92,585.91z M1126.29,585.91h-14.32
			c-1.06,0-1.92-0.86-1.92-1.92c0-1.06,0.86-1.92,1.92-1.92h14.32c1.06,0,1.92,0.86,1.92,1.92
			C1128.21,585.05,1127.35,585.91,1126.29,585.91z M1097.65,585.91h-14.32c-1.06,0-1.92-0.86-1.92-1.92c0-1.06,0.86-1.92,1.92-1.92
			h14.32c1.06,0,1.92,0.86,1.92,1.92C1099.57,585.05,1098.71,585.91,1097.65,585.91z M1069.02,585.91h-14.32
			c-1.06,0-1.92-0.86-1.92-1.92c0-1.06,0.86-1.92,1.92-1.92h14.32c1.06,0,1.92,0.86,1.92,1.92
			C1070.94,585.05,1070.08,585.91,1069.02,585.91z M1040.38,585.91h-14.32c-1.06,0-1.92-0.86-1.92-1.92c0-1.06,0.86-1.92,1.92-1.92
			h14.32c1.06,0,1.92,0.86,1.92,1.92C1042.3,585.05,1041.44,585.91,1040.38,585.91z M1011.75,585.91h-14.32
			c-1.06,0-1.92-0.86-1.92-1.92c0-1.06,0.86-1.92,1.92-1.92h14.32c1.06,0,1.92,0.86,1.92,1.92
			C1013.66,585.05,1012.81,585.91,1011.75,585.91z M983.11,585.91h-14.32c-1.06,0-1.92-0.86-1.92-1.92c0-1.06,0.86-1.92,1.92-1.92
			h14.32c1.06,0,1.92,0.86,1.92,1.92C985.03,585.05,984.17,585.91,983.11,585.91z M954.48,585.91h-14.32
			c-1.06,0-1.92-0.86-1.92-1.92c0-1.06,0.86-1.92,1.92-1.92h14.32c1.06,0,1.92,0.86,1.92,1.92
			C956.39,585.05,955.54,585.91,954.48,585.91z M925.84,585.91h-14.32c-1.06,0-1.92-0.86-1.92-1.92c0-1.06,0.86-1.92,1.92-1.92
			h14.32c1.06,0,1.92,0.86,1.92,1.92C927.76,585.05,926.9,585.91,925.84,585.91z M897.21,585.91h-14.32c-1.06,0-1.92-0.86-1.92-1.92
			c0-1.06,0.86-1.92,1.92-1.92h14.32c1.06,0,1.92,0.86,1.92,1.92C899.12,585.05,898.27,585.91,897.21,585.91z M868.57,585.91h-14.32
			c-1.06,0-1.92-0.86-1.92-1.92c0-1.06,0.86-1.92,1.92-1.92h14.32c1.06,0,1.92,0.86,1.92,1.92
			C870.49,585.05,869.63,585.91,868.57,585.91z M839.94,585.91h-14.32c-1.06,0-1.92-0.86-1.92-1.92c0-1.06,0.86-1.92,1.92-1.92
			h14.32c1.06,0,1.92,0.86,1.92,1.92C841.85,585.05,840.99,585.91,839.94,585.91z M811.3,585.91h-14.32c-1.06,0-1.92-0.86-1.92-1.92
			c0-1.06,0.86-1.92,1.92-1.92h14.32c1.06,0,1.92,0.86,1.92,1.92C813.22,585.05,812.36,585.91,811.3,585.91z M782.66,585.91h-14.32
			c-1.06,0-1.92-0.86-1.92-1.92c0-1.06,0.86-1.92,1.92-1.92h14.32c1.06,0,1.92,0.86,1.92,1.92
			C784.58,585.05,783.72,585.91,782.66,585.91z"/>
		<path class="st4" d="M1308.19,843.96l-509.04,0c-10.72,0-19.4-8.69-19.4-19.4V535.73c0-10.72,8.69-19.4,19.4-19.4l509.04,0
			c10.72,0,19.4,8.69,19.4,19.4v288.83C1327.6,835.27,1318.91,843.96,1308.19,843.96z"/>
		<rect x="779.75" y="578.2" class="st5" width="547.85" height="56.54"/>
		<path class="st6" d="M905.24,781.1l-80.55,0c-5.12,0-9.27,4.15-9.27,9.27v0c0,5.12,4.15,9.27,9.27,9.27h80.55
			c5.12,0,9.27-4.15,9.27-9.27l0,0C914.51,785.25,910.36,781.1,905.24,781.1z"/>
		<path class="st6" d="M1029.11,781.1h-80.55c-5.12,0-9.27,4.15-9.27,9.27l0,0c0,5.12,4.15,9.27,9.27,9.27h80.55
			c5.12,0,9.27-4.15,9.27-9.27l0,0C1038.38,785.25,1034.23,781.1,1029.11,781.1z"/>
		<path class="st6" d="M1152.98,781.1h-80.55c-5.12,0-9.27,4.15-9.27,9.27l0,0c0,5.12,4.15,9.27,9.27,9.27l80.55,0
			c5.12,0,9.27-4.15,9.27-9.27v0C1162.25,785.25,1158.1,781.1,1152.98,781.1z"/>
		<path class="st6" d="M1276.86,781.1l-80.55,0c-5.12,0-9.27,4.15-9.27,9.27v0c0,5.12,4.15,9.27,9.27,9.27h80.55
			c5.12,0,9.27-4.15,9.27-9.27l0,0C1286.13,785.25,1281.98,781.1,1276.86,781.1z"/>
		<path class="st6" d="M820.98,532.95L820.98,532.95c-5.65,0-10.23,4.58-10.23,10.23v3.59c0,5.65,4.58,10.23,10.23,10.23l0,0
			c5.65,0,10.23-4.58,10.23-10.23v-3.59C831.21,537.53,826.63,532.95,820.98,532.95z"/>
		<path class="st6" d="M843.02,544.98L843.02,544.98c0,6.64,5.39,12.03,12.03,12.03h42.64c6.64,0,12.03-5.39,12.03-12.03l0,0
			c0-6.64-5.39-12.03-12.03-12.03h-42.64C848.41,532.95,843.02,538.34,843.02,544.98z"/>
		<path class="st7" d="M837.43,665.15h55.07c8.83,0,15.98,7.15,15.98,15.98v47.48c0,8.83-7.15,15.98-15.98,15.98l-55.07,0
			c-8.83,0-15.98-7.15-15.98-15.98v-47.48C821.45,672.3,828.6,665.15,837.43,665.15z"/>
	</g>
	<g id="Gear_1_">
		<g>
			<path class="st8" d="M1907.46,777.24c6.43-25.36,7.48-50.98,3.81-75.4l7.76-1.16l15.32-2.29l0.19-0.04
				c-4.16-27.95-13.71-54.6-28.01-78.49l-20.18,12.02c-12.95-21.61-30.02-40.77-50.68-55.95l14.01-18.93
				c-21.84-16.31-47.27-28.65-75.32-35.76l-5.79,22.85c-25.45-6.45-50.98-7.48-75.4-3.81l-3.5-23.27
				c-27.95,4.15-54.62,13.79-78.49,28.01l12.02,20.18c-21.62,12.95-40.77,30.02-55.96,50.67l-18.93-14.01
				c-16.31,21.84-28.65,47.27-35.76,75.32l22.85,5.79c-6.45,25.45-7.49,50.98-3.82,75.4l-16.47,2.46l-6.72,1.06l-0.09-0.02
				c4.16,27.95,13.79,54.62,28.01,78.49l20.18-12.02c12.95,21.61,30.1,40.79,50.76,55.98l-14.01,18.93
				c21.85,16.31,47.19,28.63,75.24,35.74l5.79-22.85c25.45,6.45,51.07,7.51,75.49,3.84l2.69,18.09l0.81,5.18
				c27.95-4.15,54.54-13.82,78.41-28.03l-12.02-20.18c21.61-12.95,40.79-30.1,56.06-50.74l18.93,14.01
				c16.23-21.87,28.55-47.21,35.65-75.26L1907.46,777.24z M1695.84,831.12c-55.83-14.15-89.57-70.79-75.42-126.62
				c14.13-55.75,70.76-89.48,126.6-75.33c55.75,14.13,89.48,70.76,75.36,126.51C1808.22,811.51,1751.58,845.24,1695.84,831.12z"/>
		</g>
		<g>
			<path class="st8" d="M1997.25,986.19c-8.58-10.78-18.98-19.38-30.39-25.62l1.98-3.62l3.92-7.15l0.04-0.09
				c-13.04-7.16-27.25-11.65-41.83-13.27l-1.39,12.29c-13.18-1.46-26.65-0.41-39.6,3.41l-3.47-11.9
				c-13.8,3.96-27.07,10.68-38.99,20.18l7.73,9.71c-10.81,8.61-19.38,18.98-25.63,30.39l-10.87-5.95
				c-7.17,13.04-11.62,27.29-13.27,41.83l12.29,1.39c-1.46,13.19-0.41,26.65,3.41,39.6l-11.9,3.47
				c3.96,13.8,10.68,27.07,20.18,38.99l9.71-7.73c8.61,10.81,18.98,19.38,30.39,25.63l-4.22,7.69l-1.7,3.15l-0.04,0.03
				c13.04,7.16,27.29,11.62,41.83,13.27l1.39-12.29c13.18,1.46,26.69,0.38,39.64-3.44l3.47,11.9c13.8-3.96,27.04-10.66,38.95-20.15
				l-7.73-9.71c10.81-8.61,19.42-19.01,25.66-30.42l8.44,4.64l2.43,1.31c7.17-13.04,11.59-27.26,13.23-41.8l-12.29-1.39
				c1.46-13.18,0.38-26.69-3.4-39.67l11.9-3.47c-3.99-13.77-10.69-27.01-20.18-38.92L1997.25,986.19z M1952.41,1092.05
				c-23.72,18.89-58.21,14.99-77.1-8.73c-18.86-23.68-14.96-58.17,8.76-77.07c23.68-18.86,58.17-14.96,77.04,8.73
				C1980,1038.7,1976.09,1073.19,1952.41,1092.05z"/>
		</g>
		<g>
			<path class="st9" d="M1121.2,1551.94c-9.9-12.43-21.91-22.37-35.07-29.57l2.29-4.18l4.53-8.25l0.05-0.11
				c-15.05-8.27-31.45-13.45-48.27-15.31l-1.61,14.18c-15.21-1.68-30.76-0.47-45.7,3.94l-4-13.74
				c-15.92,4.57-31.24,12.33-44.99,23.28l8.92,11.2c-12.48,9.94-22.37,21.91-29.57,35.07l-12.54-6.86
				c-8.27,15.05-13.41,31.49-15.31,48.27l14.18,1.61c-1.69,15.22-0.47,30.76,3.94,45.7l-13.74,4c4.57,15.92,12.33,31.24,23.28,44.99
				l11.2-8.92c9.94,12.48,21.91,22.37,35.07,29.57l-4.87,8.87l-1.96,3.64l-0.04,0.03c15.05,8.27,31.49,13.41,48.27,15.31l1.61-14.18
				c15.21,1.69,30.8,0.44,45.74-3.97l4,13.74c15.92-4.57,31.2-12.3,44.95-23.25l-8.92-11.2c12.48-9.94,22.41-21.94,29.61-35.1
				l9.74,5.35l2.8,1.51c8.27-15.05,13.37-31.46,15.27-48.23l-14.18-1.61c1.68-15.21,0.44-30.8-3.93-45.77l13.74-4
				c-4.61-15.89-12.34-31.17-23.29-44.92L1121.2,1551.94z M1069.45,1674.11c-27.37,21.8-67.17,17.3-88.98-10.08
				c-21.77-27.33-17.26-67.13,10.11-88.93c27.33-21.77,67.13-17.26,88.9,10.07C1101.29,1612.54,1096.78,1652.34,1069.45,1674.11z"/>
		</g>
	</g>
</g>
<g id="phone">
	<g id="phone_1_">
		<path class="st10" d="M1720.56,728.07c-11.11-65.78-112.41-95.48-110.43-52.55l-464.4,2.72c-32.17,0.19-58.25,29.13-58.27,64.66
			l-0.96,1221.37c-0.03,36.82,26.51,66.92,59.29,67.2l474.08,4.07c2.94,6.18,8.45,11.8,17.13,16.5
			c54.37,1.16,80.44-25.69,89.97-56.05c3.1-8.15,4.79-17.15,4.71-26.64C1729.78,1953.45,1724,743.49,1720.56,728.07z"/>
		<path class="st11" d="M1631.92,2052.23l-544.17-3.51c-33.96-0.22-61.42-31.14-61.36-69.02l2.04-1256.07
			c0.06-36.53,27.09-66.21,60.39-66.31l533.6-1.73c33.56-0.11,61.01,29.52,61.29,66.22l9.67,1261.88
			C1693.68,2021.75,1666.16,2052.45,1631.92,2052.23z"/>
		<path d="M1639.44,2043.1c-2.26,0.3-4.57,0.45-6.88,0.43l-544.01-4.12c-29.18-0.22-53.03-27.33-52.98-60.39l1.88-1254.69
			c0.05-31.89,23.52-57.92,52.14-58.04l533.57-2.32c0.83,0,1.68,0.01,2.51,0.05c13.43,0.62,25.97,6.74,35.35,17.21
			c9.59,10.7,14.92,24.88,15.03,39.95l9.54,1263.16C1685.83,2014.26,1666.05,2039.53,1639.44,2043.1z"/>
		<polygon class="st12" points="1657.34,727.52 1666.52,1986.28 1053.67,1982.61 1055.24,727.52 		"/>
	</g>
	<g id="login">
		<path class="st7" d="M1444.12,1360.93h-164.06c-13.88,0-25.24-11.36-25.24-25.24l0,0c0-13.88,11.36-25.24,25.24-25.24h164.06
			c13.88,0,25.24,11.36,25.24,25.24l0,0C1469.36,1349.57,1458.01,1360.93,1444.12,1360.93z"/>
		<path class="st11" d="M1568.93,1173.55h-424.22c-13.88,0-25.24-11.36-25.24-25.24l0,0c0-13.88,11.36-25.24,25.24-25.24h424.22
			c13.88,0,25.24,11.36,25.24,25.24l0,0C1594.17,1162.2,1582.81,1173.55,1568.93,1173.55z"/>
		<path class="st11" d="M1568.93,1254.85h-424.22c-13.88,0-25.24-11.36-25.24-25.24l0,0c0-13.88,11.36-25.24,25.24-25.24h424.22
			c13.88,0,25.24,11.36,25.24,25.24l0,0C1594.17,1243.49,1582.81,1254.85,1568.93,1254.85z"/>
		<g>
			<path class="st2" d="M1223.93,1231.84c0,4.91-3.98,8.89-8.89,8.89c-4.91,0-8.89-3.98-8.89-8.89c0-4.91,3.98-8.89,8.89-8.89
				C1219.95,1222.96,1223.93,1226.94,1223.93,1231.84z"/>
			
				<ellipse transform="matrix(0.208 -0.9781 0.9781 0.208 -218.4769 2193.8616)" class="st2" cx="1245.51" cy="1231.84" rx="8.89" ry="8.89"/>
			
				<ellipse transform="matrix(0.7071 -0.7071 0.7071 0.7071 -497.3211 1263.0482)" class="st2" cx="1275.97" cy="1231.84" rx="8.89" ry="8.89"/>
			
				<ellipse transform="matrix(0.7071 -0.7071 0.7071 0.7071 -488.3976 1284.5916)" class="st2" cx="1306.44" cy="1231.84" rx="8.89" ry="8.89"/>
			
				<ellipse transform="matrix(0.9239 -0.3827 0.3827 0.9239 -369.6407 605.3819)" class="st2" cx="1336.91" cy="1231.84" rx="8.89" ry="8.89"/>
			
				<ellipse transform="matrix(0.2298 -0.9732 0.9732 0.2298 -145.6761 2279.6177)" class="st2" cx="1367.37" cy="1231.84" rx="8.89" ry="8.89"/>
			
				<ellipse transform="matrix(0.7071 -0.7071 0.7071 0.7071 -461.627 1349.2213)" class="st2" cx="1397.84" cy="1231.84" rx="8.89" ry="8.89"/>
			
				<ellipse transform="matrix(0.7071 -0.7071 0.7071 0.7071 -452.7035 1370.7645)" class="st2" cx="1428.31" cy="1231.84" rx="8.89" ry="8.89"/>
			
				<ellipse transform="matrix(0.9239 -0.3827 0.3827 0.9239 -360.364 652.0185)" class="st2" cx="1458.77" cy="1231.84" rx="8.89" ry="8.89"/>
		</g>
		<g>
			
				<ellipse transform="matrix(0.7071 -0.7071 0.7071 0.7071 -277.7909 1239.2118)" class="st11" cx="1356.97" cy="954.93" rx="97.52" ry="97.52"/>
			<g>
				<g>
					<path class="st12" d="M1357.11,951c9.52,0,18.31-4.64,23.92-11.72c4.15-5.13,6.59-11.72,6.59-19.04
						c0-16.84-13.67-30.76-30.52-30.76c-17.09,0-30.76,13.92-30.76,30.76c0,7.33,2.44,13.92,6.59,19.04
						C1338.55,946.37,1347.34,951,1357.11,951z"/>
				</g>
				<path class="st12" d="M1411.16,1005.82c0,19.41-108.4,19.41-108.4,0l0.03-22.62c4.28-30.93,99.56-32.22,108.39,0
					L1411.16,1005.82z"/>
			</g>
		</g>
		<path class="st13" d="M1165.75,1224.95v-1.35c0-5.48-4.45-9.93-9.93-9.93s-9.93,4.46-9.93,9.93v1.35h-1.51v17.9
			c0,3.09,22.94,3.09,22.94,0v-17.9H1165.75z M1149.43,1223.6c0-3.44,2.12-6.56,6.39-6.56c4.27,0,6.46,2.92,6.46,6.56v1.35h-12.85
			V1223.6z M1157.51,1233.97v5.17c0,0.93-0.8,1.59-1.73,1.59c-0.93,0-1.59-0.66-1.59-1.59v-5.17c-0.93-0.53-1.59-1.46-1.59-2.65
			c0-1.72,1.46-3.18,3.18-3.18c1.73,0,3.18,1.46,3.18,3.18C1158.97,1232.51,1158.3,1233.44,1157.51,1233.97z"/>
		<g>
			<g>
				<g>
					<path class="st13" d="M1155.85,1146.48c2.01,0,3.86-0.98,5.05-2.47c0.88-1.08,1.39-2.47,1.39-4.02c0-3.55-2.89-6.49-6.44-6.49
						c-3.61,0-6.49,2.94-6.49,6.49c0,1.55,0.51,2.94,1.39,4.02C1151.93,1145.5,1153.78,1146.48,1155.85,1146.48z"/>
				</g>
				<path class="st13" d="M1167.25,1158.05c0,4.1-22.99,4.1-22.99,0l0.12-4.77c0.9-6.53,21.01-6.8,22.87,0L1167.25,1158.05z"/>
			</g>
			<path class="st2" d="M1304.44,1155.72h-92.97c-4.07,0-7.41-3.33-7.41-7.41l0,0c0-4.07,3.33-7.41,7.41-7.41h92.97
				c4.07,0,7.41,3.33,7.41,7.41l0,0C1311.85,1152.39,1308.51,1155.72,1304.44,1155.72z"/>
			<path class="st2" d="M1427.05,1155.72h-92.97c-4.07,0-7.41-3.33-7.41-7.41l0,0c0-4.07,3.33-7.41,7.41-7.41h92.97
				c4.07,0,7.41,3.33,7.41,7.41l0,0C1434.46,1152.39,1431.13,1155.72,1427.05,1155.72z"/>
		</g>
	</g>
	<g id="key">
		<path class="st11" d="M1231.8,1621.33v183.9c0,20.44,250.05,20.44,250.05,0v-183.9H1231.8z"/>
		<g>
			
				<ellipse transform="matrix(0.2298 -0.9732 0.9732 0.2298 -600.4672 2622.8499)" class="st12" cx="1356.82" cy="1690.79" rx="30.87" ry="30.87"/>
			<path class="st12" d="M1356.82,1783.76L1356.82,1783.76c-6.99,0-12.65-5.67-12.65-12.65v-70.81h25.31v70.81
				C1369.48,1778.09,1363.81,1783.76,1356.82,1783.76z"/>
		</g>
		<path class="st11" d="M1459.93,1608.22h-25.31v-12.38c0-42.9-34.9-77.81-77.8-77.81c-42.9,0-77.81,34.9-77.81,77.81v12.38h-25.31
			v-12.38c0-56.86,46.26-103.11,103.11-103.11c56.85,0,103.11,46.26,103.11,103.11V1608.22z"/>
	</g>
</g>
<g id="shield">
	<g>
		<g>
			<g>
				<path class="st14" d="M1565.93,1399.55L1565.93,1399.55c0-0.98,0.01-1.41,0.01-1.5
					C1565.93,1398.23,1565.93,1399.55,1565.93,1399.55z"/>
				<path class="st14" d="M1565.93,1399.55L1565.93,1399.55c0-0.98,0.01-1.41,0.01-1.5
					C1565.93,1398.23,1565.93,1399.55,1565.93,1399.55z"/>
				<path class="st14" d="M2148.3,1402.16c0,0,0.01-1.32,0.01-1.5C2148.3,1400.75,2148.3,1401.18,2148.3,1402.16L2148.3,1402.16z"/>
				<path class="st14" d="M2148.3,1402.16c0,0,0.01-1.32,0.01-1.5C2148.3,1400.75,2148.3,1401.18,2148.3,1402.16L2148.3,1402.16z"/>
				<path class="st11" d="M1858.19,1262.7c-64.47,69.05-167.33,125.65-277.41,149.76c-0.03,7.35-0.21,48.08-1.05,235.82
					c-1.12,250.44,237.22,372.82,274.23,391.6c35.85-16.5,277.2-138.69,278.32-389.13c0.84-187.74,1.02-228.47,1.05-235.82
					C2023.47,1389.84,1922.04,1332.33,1858.19,1262.7z"/>
			</g>
		</g>
		<g>
			<path class="st15" d="M1857.61,1289.86c-66.46,60.96-158.53,108.88-259.77,135l-1,223.38
				c-0.46,102.21,40.15,194.67,120.69,274.84c52.92,52.67,108.56,85.34,136.8,100.02c1.21-0.62,2.55-1.31,3.86-1.99v-730.72
				C1858,1290.21,1857.8,1290.04,1857.61,1289.86z"/>
			<path class="st16" d="M1858.19,1290.38v730.72c29.36-15.27,82.72-46.84,133.83-96.8c81.25-79.44,122.69-171.53,123.14-273.75
				l1-223.38C2015.44,1400.24,1924.05,1351.69,1858.19,1290.38z"/>
		</g>
		<path class="st12" d="M2061.04,1514.28c-77.08,11.89-182.03,82.18-248.25,166.71c-9.29-39.86-50.98-76.24-72.79-84.2l-66.09,66.43
			c41.26,18.6,86.36,71.28,92.33,125.22l66.02,10.23c27.83-54.98,99.72-186.5,242.73-257.21
			C2072.25,1530.7,2062.15,1515.82,2061.04,1514.28z"/>
	</g>
</g>
<g id="lady">
	<g>
		<path class="st17" d="M805.48,1113.27l-11.62,46.72l-2.11,8.69c-2.35,11.04-75.25,6.34-70.08-6.57l4.34-9.51l22.42-49.19
			L805.48,1113.27z"/>
		<g>
			<g>
				<path class="st17" d="M848.1,1043.97c0.74,50.66-22.77,91.86-59.57,91.68c-36.8-0.18-72.4-31.4-73.69-92.32
					c-0.82-38.81,30.17-70.15,66.97-69.97C818.61,973.53,847.53,1005.15,848.1,1043.97z"/>
			</g>
			<path d="M782.91,959.42c0,0,73.33,3.62,79.43,59.16c8.14,48.74-28.43,12.91-43.36,45.62c-17.1,37.47,0.33,64.89,22.55,72.33
				c-19.76,27.59-132.75,26.6-161.82-21.81C659.8,1054.01,687.98,962.79,782.91,959.42z"/>
			<path class="st17" d="M834.33,1062.2c0.61,7.52-4.99,14.11-12.51,14.72c-7.52,0.61-14.11-4.99-14.72-12.51
				c-0.61-7.52,4.99-14.11,12.51-14.72S833.72,1054.68,834.33,1062.2z"/>
		</g>
		<path class="st11" d="M823.1,2004.68c3.44-3.64,19.65-3.7,21.13,1.69c1.48,5.38-1.38,9.23,5.47,17.77
			c-3.94,1.14-17.9,1.24-22.18,0C823.24,2022.89,819.66,2008.32,823.1,2004.68z"/>
		<path class="st18" d="M796.31,2023.08h39.51c3.69-167.2,2.99-349.21,1.66-486.29c-0.48-49.09-1.83-73.92-10.73-103.39
			c-17.98-59.51-102.53-41.19-108.53,12.75c-2.5,29.93-4.33,88.33,51.01,286.77C745.26,1820.28,787.06,1925.04,796.31,2023.08z"/>
		<path class="st11" d="M857.95,2025.63c-5.82-0.31-19.41-5.91-21.97-9.78c-3.78,4.22-11.64,5.39-21.13,3.97
			c-11.21-1.67-12.69-6.88-20.73-6.19c-3.39,9.43-11.65,30.58-3.68,35.49c0,0,47.12,0,83.07,0
			C880.92,2042.35,880.72,2027.9,857.95,2025.63z"/>
		<g>
			<path class="st11" d="M621.94,2008.91c2.89-3.06,16.52-3.11,17.76,1.42c1.24,4.52-1.16,7.76,4.59,14.93
				c-3.31,0.96-15.05,1.04-18.64,0C622.06,2024.21,619.05,2011.97,621.94,2008.91z"/>
			<path class="st18" d="M752.15,1444.63c-8.08-61.64-117.74-55.31-125.03-1.49c-2.63,28.96-10.68,72.55,9.93,287.67
				c-43.47,82.09-31.19,199.89-44.18,286.6c-1.43,13.19,35.94,16.36,38.84,4.6c39.83-160.88,95.48-341.37,116.17-475.21
				C755.39,1498.29,756.15,1475.16,752.15,1444.63z"/>
			<path class="st11" d="M651.34,2023.08c-5.82-0.31-14.4-7.88-16.96-11.75c-3.78,4.22-10.99,9.91-20.48,8.49
				c-11.21-1.67-12.69-6.88-20.73-6.19c-3.39,9.43-11.65,30.58-3.68,35.49c0,0,44.85,0,80.81,0
				C677.71,2042.35,674.11,2025.35,651.34,2023.08z"/>
		</g>
		<g>
			<path class="st17" d="M937.09,1118.36l-20.45,4.54c0.46,10.76-0.83,27.95,0,46.93l34.4-4.53
				C945.8,1146.18,940.75,1129.43,937.09,1118.36z"/>
			<path class="st11" d="M916.64,1169.82c-0.76,37.61-1.77,53.73-2.08,68.54l-102.06-65.46c-31.1-9.44-67.37,52.12-28.04,79.89
				c0,0,135.92,76.75,166.5,54.64c16.54-11.96,12.25-97.75,0.09-142.15L916.64,1169.82z"/>
			<g>
				<path class="st17" d="M946.33,1098.35c-9.45-11.08-30.2-7.22-31.78-6.92l2,30.65c0.46,15.14,19.24,15.65,26.88,2.6
					C943.44,1124.69,954.52,1109.26,946.33,1098.35z"/>
				<path class="st17" d="M924.6,1094.33c-6.89-33.39-13.84-28.92-13.84-28.92s1.11,11.8,4.23,32.62
					C917.32,1109.83,925.45,1102.71,924.6,1094.33z"/>
			</g>
		</g>
		<path id="XMLID_2_" class="st11" d="M836.61,1260.88c6.93-33.73,10.65-67.03-24.12-87.97c-20.61-12.42-86.86-21.28-117.84-11.03
			c-31.21,13.95-24.46,74.79-30.31,170.87c-21.51,47.95-30.86,63.7-37.23,110.4c0,0,11.51,35.19,92.58,35.23
			c36.81,0.02,91.03-3.25,115.69-22.03c-2.46-31.85-15.78-62.53-21.33-107.62C814.06,1348.73,836.11,1264.75,836.61,1260.88z"/>
		<g>
			<g>
				<path class="st11" d="M678.01,1168.66c-38.05,29.05-75.16,74.73-92.7,98.99c-17.54,24.26-62.97,121.75-62.97,121.75l28.91,21.32
					l78.21-106.56l95.54-78.37C758.16,1191.95,715.07,1140.37,678.01,1168.66z"/>
				<path class="st17" d="M510.22,1414.13l18.74-38.72c4.41,11.64,25.86,22.27,32.02,22.04c0,0-20.15,29-25.08,33.93
					C530.98,1436.3,510.63,1427.96,510.22,1414.13z"/>
			</g>
			<g>
				<path class="st17" d="M540.65,1424.91c-0.07,0.29,0.01,0.68-0.07,0.97c-0.94,14.09-11.77,20.76-14.7,22.34
					c-0.23,0.19-0.49,0.24-0.75,0.3c10.19-2.04,13.24,11.61,8.06,14.76c-14.99,10.15-36.36-3.81-38.17-12.28
					c-1.84-8.6,15.24-37.03,15.24-37.03C518.97,1406.93,541.27,1408.02,540.65,1424.91z"/>
				<path class="st19" d="M540.59,1425.87c-0.6,15.92-14.95,22.48-15.22,22.53c-8.4-0.23-11.39-0.74-19.4-0.72
					c5.23-2.55,15.96-9.34,11.8-22.51C525.99,1418.89,538.34,1424.38,540.59,1425.87z"/>
				<path class="st17" d="M540.8,1424.06c2.21,13.15,1.28,31.88-1.85,40.12c0,0-8.06,0.42-7.3-14.8c0.2-3.96-0.37-12.56-4.29-15.43
					c-12.07-7.97-14.01-15.29-9.58-21.29C523.67,1404.67,540.34,1412.79,540.8,1424.06z"/>
				<path class="st17" d="M503.46,1459.99c6.55,4.54,23.87,13.34,26.61,11.17c2.73-2.17-11.12-16.92-20.06-18.87
					C501.06,1450.33,500.11,1457.67,503.46,1459.99z"/>
			</g>
		</g>
	</g>
</g>
</svg>
